<?xml version="1.0" encoding="UTF-8"?>
<svg id="Layer_1" data-name="Layer 1" xmlns="http://www.w3.org/2000/svg" version="1.1" viewBox="0 0 2426.6 373.6">
  <defs>
    <style>
      .cls-1 {
        fill: #e8ad53;
      }

      .cls-1, .cls-2 {
        fill-rule: evenodd;
        stroke-width: 0px;
      }

      .cls-2 {
        fill: #52a1ff;
      }
    </style>
  </defs>
  <path class="cls-2" d="M423.5,96.9h93.7l-31.9,80.9h91.5l29.8-80.9h93.7l-85.1,217.1h-91.5l31.9-83h-91.5l-31.9,83h-91.5l83-217.1h-.2ZM770.5,222.5c8.5-21.3,23.4-34,42.6-34s25.5,12.8,17,34h-59.6ZM906.7,250.2l2.1-6.4c25.6-68.1-25.5-87.3-83-87.3s-125.6,23.4-149,83c-23.4,57.5,17,80.9,87.3,80.9s119.2-23.4,132-49h-87.3c-6.4,8.5-17,17-34.1,17s-25.6-12.8-14.9-38.3h146.9ZM1079.1,96.9l-85.1,217.1h-87.3l85.1-217.1h87.3,0ZM1153.6,239.5c8.5-25.6,25.5-42.6,44.7-42.6s23.4,17,12.8,42.6c-6.4,19.2-21.3,40.4-44.7,40.4s-21.3-21.3-12.8-40.4ZM1011,373.6h89.4l29.8-76.6c8.5,12.8,25.5,23.4,53.2,23.4,51.1,0,97.9-25.6,119.2-78.8,23.4-61.7-2.1-85.2-51.1-85.2s-59.6,12.8-80.9,31.9l8.5-25.6h-87.3c-6.4,19.2-14.9,42.6-21.3,57.5l-59.6,153.3h.1ZM1466.5,145.9h25.5c40.5,0,59.6,19.2,42.6,59.6-14.9,40.5-46.8,59.6-89.4,59.6h-25.6l46.8-119.2h0ZM1309,314h132c68.1,0,95.8-8.5,129.8-27.7,23.4-14.9,46.8-46.8,59.6-78.8,12.8-31.9,12.8-59.6,2.1-74.5-17-31.9-57.5-36.2-121.3-36.2h-117.1l-85.1,217.1h0ZM1732.6,222.5c6.4-21.3,23.4-34,42.6-34s23.4,12.8,17,34h-59.6ZM1866.7,250.2l4.3-6.4c25.5-68.1-25.6-87.3-83-87.3s-127.7,23.4-149,83c-23.4,57.5,14.9,80.9,87.3,80.9s119.2-23.4,132-49h-87.3c-6.4,8.5-17,17-34,17s-25.6-12.8-14.9-38.3h144.7,0ZM2043.4,207.6c2.1-8.5,0-12.8-4.3-14.9s-10.6-4.3-17-4.3c-14.9,0-27.7,6.4-31.9,14.9-2.2,8.5,0,10.6,36.2,17l29.8,4.3c44.7,6.4,63.9,17,53.2,46.8-14.9,31.9-53.2,49-132,49s-110.7-17-100-49h80.9c0,6.4,0,10.6,4.3,12.8,4.3,4.3,10.6,4.3,21.3,4.3,19.2,0,31.9-4.3,36.2-12.8,4.3-10.6-2.1-12.8-34.1-19.2l-55.3-8.5c-25.6-4.3-34.1-19.2-25.6-36.2,14.9-38.3,59.6-55.3,129.9-55.3s106.4,10.6,91.5,51.1h-83.1ZM2243.5,235.2l80.9-72.4h102.2l-87.3,66,46.8,85.2h-112.8l-29.8-78.8h0ZM2207.3,96.9h89.4l-85.1,217.1h-89.4l85.2-217.1h0ZM327.7,22.4C266-22.3,136.1,3.2,48.9,69.2,131.9,20.2,240.5,7.5,298,45.8c68.1,42.6,51.1,134.1-36.2,204.4-6.4,6.4,10.6-6.4,4.3-2.1,14.9-8.5,174.5-149,61.7-225.6h-.1Z"/>
  <path class="cls-1" d="M25.5,322.5c57.5,48.9,189.4,19.2,285.2-38.3-89.4,40.5-200.1,55.4-251.2,12.8-57.5-48.9-14.9-151.1,83-215,4.3-4.3,8.5-6.4,12.8-8.5-14.9,6.4-29.8,14.9-42.6,23.4C12.6,160.8-32.1,273.6,25.4,322.5h0Z"/>
  <path class="cls-1" d="M161.7,126.7h83l-68.1,161.8h-80.9l66-161.8ZM185.1,69.2h83l-17,40.5h-83l17-40.5h0Z"/>
</svg>